<svg width="24" height="23" viewBox="0 0 24 23" fill="none" xmlns="http://www.w3.org/2000/svg">
<path d="M15.4816 6.12714L12.2505 2.03078L14.5652 1.5782L17.7845 5.67457L15.4816 6.12714ZM23.5535 4.54894L22.6371 0L18.0195 0.905146L21.2389 5.01312L23.5535 4.54894ZM3.03893 3.85267L1.88748 4.07316C1.27849 4.19643 0.74327 4.55189 0.397933 5.06241C0.052597 5.57294 -0.075005 6.19735 0.042809 6.8002L0.501039 9.07467L6.25828 7.94904L3.03893 3.85267ZM12.0273 6.81181L8.80792 2.69223L6.49327 3.16801L9.72438 7.26438L12.0273 6.81181ZM0.501039 9.07467V20.6791C0.501039 21.2946 0.748616 21.885 1.18931 22.3202C1.63 22.7555 2.2277 23 2.85093 23H14.3772C13.778 21.9788 13.4255 20.7952 13.4255 19.5187C13.4255 15.6776 16.5861 12.556 20.4752 12.556C21.7676 12.556 22.966 12.9041 24 13.496V9.07467H0.501039ZM18.1253 23L24 19.5187L18.1253 16.0373V23Z" fill="white"/>
</svg>
