<svg width="25" height="24" viewBox="0 0 25 24" fill="none" xmlns="http://www.w3.org/2000/svg">
<path fill-rule="evenodd" clip-rule="evenodd" d="M12.5 21.75C14.283 21.7525 16.0349 21.3023 17.5781 20.445V17.25C17.5781 16.3549 17.2077 15.4965 16.5484 14.8635C15.8891 14.2306 14.9949 13.875 14.0625 13.875H10.9375C10.0051 13.875 9.11089 14.2306 8.45158 14.8635C7.79227 15.4965 7.42188 16.3549 7.42188 17.25V20.445C8.96509 21.3023 10.717 21.7525 12.5 21.75ZM19.9219 17.25V18.6555C21.273 17.267 22.172 15.5297 22.5084 13.6572C22.8449 11.7848 22.6041 9.85877 21.8156 8.11594C21.0272 6.3731 19.7254 4.88942 18.0704 3.84727C16.4154 2.80511 14.4793 2.24991 12.5 2.24991C10.5207 2.24991 8.58458 2.80511 6.92958 3.84727C5.27457 4.88942 3.97283 6.3731 3.18437 8.11594C2.39592 9.85877 2.15511 11.7848 2.49155 13.6572C2.828 15.5297 3.72702 17.267 5.07812 18.6555V17.25C5.07766 16.0902 5.45064 14.9586 6.146 14.0102C6.84135 13.0618 7.82509 12.3429 8.9625 11.952C8.37248 11.3005 7.99012 10.4998 7.86104 9.64545C7.73196 8.79109 7.8616 7.91911 8.23449 7.13353C8.60739 6.34794 9.2078 5.68191 9.96412 5.21488C10.7204 4.74784 11.6007 4.49951 12.5 4.49951C13.3993 4.49951 14.2796 4.74784 15.0359 5.21488C15.7922 5.68191 16.3926 6.34794 16.7655 7.13353C17.1384 7.91911 17.268 8.79109 17.139 9.64545C17.0099 10.4998 16.6275 11.3005 16.0375 11.952C17.1749 12.3429 18.1586 13.0618 18.854 14.0102C19.5494 14.9586 19.9223 16.0902 19.9219 17.25ZM12.5 24C15.8152 24 18.9946 22.7357 21.3388 20.4853C23.683 18.2348 25 15.1826 25 12C25 8.8174 23.683 5.76516 21.3388 3.51472C18.9946 1.26428 15.8152 0 12.5 0C9.18479 0 6.00537 1.26428 3.66117 3.51472C1.31696 5.76516 0 8.8174 0 12C0 15.1826 1.31696 18.2348 3.66117 20.4853C6.00537 22.7357 9.18479 24 12.5 24ZM14.8438 9C14.8437 9.59674 14.5968 10.169 14.1573 10.591C13.7177 11.0129 13.1216 11.25 12.5 11.25C11.8784 11.25 11.2823 11.0129 10.8427 10.591C10.4032 10.169 10.1562 9.59674 10.1562 9C10.1562 8.40326 10.4032 7.83097 10.8427 7.40901C11.2823 6.98705 11.8784 6.75 12.5 6.75C13.1216 6.75 13.7177 6.98705 14.1573 7.40901C14.5968 7.83097 14.8438 8.40326 14.8438 9Z" fill="#BC002E"/>
</svg>
