<svg width="28" height="24" viewBox="0 0 28 24" fill="none" xmlns="http://www.w3.org/2000/svg">
<path fill-rule="evenodd" clip-rule="evenodd" d="M24.2161 4.06337L24.7921 6.21238C24.8688 6.49917 24.8642 6.80166 24.7788 7.08599C24.6934 7.37032 24.5306 7.62529 24.3086 7.82237L24.2311 7.88738C23.8495 8.18508 23.5624 8.58715 23.4048 9.04479C23.2472 9.50243 23.2259 9.99598 23.3433 10.4655C23.4607 10.9351 23.7119 11.3605 24.0663 11.6901C24.4208 12.0197 24.8633 12.2393 25.3401 12.3224L25.4481 12.3389C25.7502 12.3784 26.0337 12.5066 26.2629 12.7073C26.4921 12.908 26.6566 13.1722 26.7356 13.4664L27.3221 15.6544C27.3902 15.9081 27.4076 16.1727 27.3733 16.4332C27.3391 16.6936 27.2539 16.9448 27.1226 17.1723C26.9913 17.3998 26.8164 17.5992 26.6081 17.7591C26.3997 17.9191 26.1618 18.0364 25.9081 18.1044L5.6231 23.5394C5.11077 23.6765 4.56495 23.6045 4.10569 23.3393C3.64642 23.074 3.31133 22.6372 3.1741 22.1249L2.6226 20.0664C2.54069 19.76 2.54382 19.4371 2.63165 19.1324C2.71948 18.8277 2.88869 18.5526 3.1211 18.3369L3.2026 18.2669C3.57626 17.962 3.8538 17.5556 4.00178 17.0967C4.14976 16.6377 4.16186 16.1457 4.03662 15.68C3.91139 15.2143 3.65416 14.7948 3.29593 14.4719C2.93771 14.1491 2.49376 13.9367 2.0176 13.8604C1.68827 13.8073 1.38133 13.66 1.13374 13.4365C0.886148 13.2129 0.708467 12.9226 0.622098 12.6004L0.0680984 10.5339C0.000133313 10.2801 -0.0171776 10.0155 0.0171542 9.75504C0.0514861 9.4946 0.136788 9.24348 0.268188 9.01601C0.399588 8.78854 0.574512 8.58919 0.782969 8.42934C0.991426 8.26949 1.22933 8.15227 1.4831 8.08437L21.7666 2.64937C22.0203 2.58132 22.2849 2.56391 22.5454 2.59814C22.8058 2.63237 23.057 2.71757 23.2845 2.84888C23.512 2.98018 23.7114 3.15502 23.8714 3.36341C24.0313 3.57179 24.1486 3.80964 24.2166 4.06337M22.1341 4.36688L2.0236 9.75537C1.7461 9.82987 1.5811 10.1154 1.6556 10.3929L2.0511 11.8694C2.90636 12.0417 3.69652 12.4494 4.33256 13.0466C4.96861 13.6437 5.42527 14.4067 5.6511 15.2494C5.87697 16.0921 5.86301 16.9812 5.6108 17.8165C5.35859 18.6517 4.87815 19.4 4.2236 19.9769L4.6191 21.4534C4.6941 21.7309 4.9791 21.8959 5.2566 21.8214L25.3666 16.4329C25.6441 16.3584 25.8091 16.0729 25.7346 15.7954L25.3396 14.3194C24.4843 14.147 23.6941 13.7392 23.058 13.142C22.422 12.5447 21.9654 11.7817 21.7396 10.9389C21.5137 10.0962 21.5275 9.2071 21.7797 8.37185C22.0318 7.5366 22.5121 6.78834 23.1666 6.21137L22.7711 4.73488C22.7535 4.66882 22.723 4.60689 22.6814 4.55263C22.6398 4.49837 22.5879 4.45285 22.5287 4.41867C22.4695 4.38449 22.4041 4.36232 22.3363 4.35343C22.2685 4.34454 22.2001 4.34911 22.1341 4.36688ZM21.4921 15.1464C21.5431 15.3367 21.556 15.5351 21.5303 15.7304C21.5045 15.9257 21.4406 16.114 21.3421 16.2846C21.2435 16.4552 21.1124 16.6047 20.9561 16.7246C20.7998 16.8445 20.6214 16.9324 20.4311 16.9834C20.2408 17.0343 20.0424 17.0473 19.8471 17.0216C19.6518 16.9958 19.4634 16.9319 19.2929 16.8333C19.1223 16.7348 18.9728 16.6036 18.8529 16.4473C18.733 16.291 18.6451 16.1127 18.5941 15.9224C18.4912 15.5381 18.5452 15.1286 18.7441 14.7841C18.9431 14.4396 19.2708 14.1883 19.6551 14.0854C20.0394 13.9825 20.4488 14.0364 20.7933 14.2354C21.1378 14.4344 21.3892 14.7621 21.4921 15.1464ZM20.4571 11.2824C20.5601 11.6667 20.5062 12.0761 20.3072 12.4207C20.1083 12.7652 19.7806 13.0167 19.3963 13.1196C19.012 13.2226 18.6026 13.1687 18.258 12.9698C17.9135 12.7708 17.6621 12.4432 17.5591 12.0589C17.462 11.6766 17.5194 11.2714 17.7188 10.9312C17.9182 10.5909 18.2437 10.3428 18.6246 10.2407C19.0056 10.1386 19.4115 10.1907 19.7544 10.3856C20.0972 10.5806 20.35 10.9028 20.4571 11.2824ZM19.4211 7.41888C19.4721 7.60916 19.4851 7.80762 19.4594 8.00294C19.4337 8.19825 19.3697 8.38658 19.2712 8.55719C19.1727 8.72779 19.0416 8.87733 18.8853 8.99725C18.729 9.11717 18.5506 9.20514 18.3603 9.25612C18.1701 9.30711 17.9716 9.32012 17.7763 9.2944C17.581 9.26869 17.3926 9.20476 17.222 9.10626C17.0514 9.00776 16.9019 8.87662 16.782 8.72033C16.662 8.56404 16.5741 8.38566 16.5231 8.19537C16.4201 7.81108 16.474 7.40161 16.673 7.05706C16.8719 6.71251 17.1995 6.4611 17.5838 6.35813C17.9681 6.25515 18.3776 6.30906 18.7222 6.50799C19.0667 6.70692 19.3181 7.03458 19.4211 7.41888ZM14.2396 0.852875L15.5156 2.67488C15.5343 2.70188 15.5521 2.72921 15.5691 2.75687L3.3616 6.02788L11.4541 0.361375C11.8886 0.0573106 12.4261 -0.0617253 12.9484 0.0304449C13.4706 0.122615 13.9354 0.418444 14.2396 0.852875Z" fill="#BC002E"/>
</svg>
